<svg id="visual" viewBox="0 0 1600 900" width="1600" height="900" xmlns="http://www.w3.org/2000/svg" xmlns:xlink="http://www.w3.org/1999/xlink" version="1.1">
<rect x="0" y="0" width="1600" height="900" fill="#1F1F33"></rect>
<path d="M0 620L38.2 623.5C76.3 627 152.7 634 228.8 621.7C305 609.3 381 577.7 457.2 563.7C533.3 549.7 609.7 553.3 685.8 570.2C762 587 838 617 914.2 617.3C990.3 617.7 1066.7 588.3 1142.8 585.3C1219 582.3 1295 605.7 1371.2 607.3C1447.3 609 1523.7 589 1561.8 579L1600 569L1600 901L1561.8 901C1523.7 901 1447.3 901 1371.2 901C1295 901 1219 901 1142.8 901C1066.7 901 990.3 901 914.2 901C838 901 762 901 685.8 901C609.7 901 533.3 901 457.2 901C381 901 305 901 228.8 901C152.7 901 76.3 901 38.2 901L0 901Z" fill="#232341"></path>
<path d="M0 664L38.2 669.7C76.3 675.3 152.7 686.7 228.8 685.8C305 685 381 672 457.2 663.5C533.3 655 609.7 651 685.8 654.7C762 658.3 838 669.7 914.2 675.7C990.3 681.7 1066.7 682.3 1142.8 681.7C1219 681 1295 679 1371.2 665.3C1447.3 651.7 1523.7 626.3 1561.8 613.7L1600 601L1600 901L1561.8 901C1523.7 901 1447.3 901 1371.2 901C1295 901 1219 901 1142.8 901C1066.7 901 990.3 901 914.2 901C838 901 762 901 685.8 901C609.7 901 533.3 901 457.2 901C381 901 305 901 228.8 901C152.7 901 76.3 901 38.2 901L0 901Z" fill="#26224d"></path>
<path d="M0 664L38.2 675.5C76.3 687 152.7 710 228.8 721.5C305 733 381 733 457.2 736.7C533.3 740.3 609.7 747.7 685.8 746.5C762 745.3 838 735.7 914.2 735.2C990.3 734.7 1066.7 743.3 1142.8 740.3C1219 737.3 1295 722.7 1371.2 710.5C1447.3 698.3 1523.7 688.7 1561.8 683.8L1600 679L1600 901L1561.8 901C1523.7 901 1447.3 901 1371.2 901C1295 901 1219 901 1142.8 901C1066.7 901 990.3 901 914.2 901C838 901 762 901 685.8 901C609.7 901 533.3 901 457.2 901C381 901 305 901 228.8 901C152.7 901 76.3 901 38.2 901L0 901Z" fill="#2b1f58"></path>
<path d="M0 736L38.2 734C76.3 732 152.7 728 228.8 738.5C305 749 381 774 457.2 783.8C533.3 793.7 609.7 788.3 685.8 785C762 781.7 838 780.3 914.2 770.7C990.3 761 1066.7 743 1142.8 735.8C1219 728.7 1295 732.3 1371.2 734.3C1447.3 736.3 1523.7 736.7 1561.8 736.8L1600 737L1600 901L1561.8 901C1523.7 901 1447.3 901 1371.2 901C1295 901 1219 901 1142.8 901C1066.7 901 990.3 901 914.2 901C838 901 762 901 685.8 901C609.7 901 533.3 901 457.2 901C381 901 305 901 228.8 901C152.7 901 76.3 901 38.2 901L0 901Z" fill="#341b62"></path>
<path d="M0 807L38.2 810.2C76.3 813.3 152.7 819.7 228.8 826.7C305 833.7 381 841.3 457.2 841.5C533.3 841.7 609.7 834.3 685.8 833.2C762 832 838 837 914.2 839C990.3 841 1066.7 840 1142.8 837.2C1219 834.3 1295 829.7 1371.2 825.3C1447.3 821 1523.7 817 1561.8 815L1600 813L1600 901L1561.8 901C1523.7 901 1447.3 901 1371.2 901C1295 901 1219 901 1142.8 901C1066.7 901 990.3 901 914.2 901C838 901 762 901 685.8 901C609.7 901 533.3 901 457.2 901C381 901 305 901 228.8 901C152.7 901 76.3 901 38.2 901L0 901Z" fill="#3f126a"></path>
</svg>